<svg width="99" height="38" viewBox="0 0 99 38" fill="none" xmlns="http://www.w3.org/2000/svg">
<path d="M10.1686 36.0569L10.3953 36.7188H9.69559H2.19227H1.4752L1.72309 36.046C2.27044 34.5603 2.57674 32.9776 2.63964 31.2951L2.63955 31.2951L2.64008 31.2857C2.72048 29.8546 2.7607 28.3989 2.7607 26.9186V24.9274C2.7607 23.5639 2.84283 22.1769 3.0068 20.7665C3.22701 18.82 3.9369 16.904 5.1199 15.0212L5.11988 15.0212L5.12268 15.0168C5.43454 14.5317 5.80547 14.0751 6.23387 13.6467L6.58742 14.0002L6.23387 13.6467C6.28563 13.5949 6.34082 13.5463 6.39973 13.5024C6.55308 13.3361 6.72073 13.1789 6.90215 13.0305L6.90213 13.0305L6.90642 13.027C7.16085 12.8235 7.40775 12.6541 7.64662 12.524C8.50116 11.9893 9.41341 11.5549 10.3825 11.2207L10.3825 11.2206L10.3922 11.2175C11.3926 10.8953 12.4046 10.7248 13.4268 10.7078L13.4268 10.7077H13.4351H13.7508C14.6687 10.7077 15.556 10.8268 16.411 11.0662L16.411 11.0661L16.4226 11.0696C18.2911 11.642 19.8773 12.5804 21.1694 13.8883C21.4735 14.1847 21.7569 14.498 22.0195 14.8282L21.9932 14.3174L21.9931 14.3174L21.9928 14.3073C21.9644 13.3993 21.6028 12.4524 20.8549 11.4602L20.251 10.6592H21.2541H28.7574H29.7605L29.1567 11.4602C28.4087 12.4524 28.0472 13.3993 28.0188 14.3073L28.0189 14.3073L28.0183 14.3187L27.8484 17.4492C27.7517 19.5285 27.7034 21.6078 27.7034 23.6871C27.7195 25.7683 27.776 27.8495 27.8728 29.9307L27.8729 29.9322L27.9213 31.0466C27.9213 31.047 27.9214 31.0475 27.9214 31.0479C27.9534 31.7033 28.0013 32.367 28.0653 33.039L28.0654 33.0397C28.1534 33.9782 28.5142 34.9449 29.1745 35.943L29.6877 36.7188H28.7574H21.2541H20.3238L20.8371 35.943C21.4974 34.9449 21.8582 33.9782 21.9461 33.0397L21.9462 33.039C22.0099 32.3704 22.0496 31.7104 22.0655 31.0587L22.0654 31.0587L22.0659 31.0492C22.0822 30.673 22.1067 30.2968 22.1392 29.9207C22.2358 27.8428 22.2921 25.765 22.3082 23.6871C22.3082 21.6631 22.2609 19.6311 22.1664 17.5911C22.052 17.2631 21.9059 16.9559 21.7283 16.6687C21.3259 16.0283 20.8117 15.476 20.1819 15.0109C18.967 14.1305 17.6688 13.6989 16.2762 13.6989H16.0761C14.6274 13.8078 13.4091 14.2968 12.3998 15.1577L12.3904 15.1657L12.3807 15.1732C11.8413 15.5893 11.3569 16.0508 10.9267 16.5577L10.9135 16.5733L10.899 16.5878C10.7976 16.6893 10.7494 16.753 10.7314 16.7829L10.6997 16.8356L10.6562 16.8792L10.6345 16.9009C10.6101 16.9348 10.5847 16.9728 10.5585 17.0151C10.5315 17.0786 10.4962 17.1401 10.4514 17.1974C10.3404 17.4093 10.2351 17.6355 10.1358 17.8764C9.71461 18.9697 9.3831 20.2447 9.14492 21.7054L9.14505 21.7055L9.14294 21.7168C8.87218 23.1662 8.69651 24.6897 8.6166 26.2879C8.60081 26.6038 8.59294 26.9112 8.59294 27.21C8.59294 28.4614 8.6959 29.7383 8.90246 31.0412L8.90297 31.0446C9.14063 32.6131 9.56157 34.2836 10.1686 36.0569Z" stroke="url(#paint0_linear_634_54481)"/>
<path d="M36.4867 31.1726L36.4802 31.1825L36.4734 31.1921C36.2916 31.4466 36.2023 31.7253 36.2023 32.0428C36.2023 32.182 36.2256 32.3457 36.2802 32.5368L35.7994 32.6741L36.2802 32.5368C36.3582 32.81 36.4883 33.0664 36.6747 33.3077C36.8905 33.5658 37.1354 33.8039 37.4101 34.0219C38.013 34.4461 38.6901 34.7407 39.4464 34.9043C40.0611 35.0269 40.6745 35.0881 41.2873 35.0881C42.2502 35.0881 43.1983 34.9359 44.1336 34.6302C45.6505 34.0671 46.7568 33.1598 47.4845 31.9123L47.4845 31.9123L47.4877 31.907C47.8499 31.3033 48.1047 30.6726 48.2545 30.0137L48.2544 30.0136L48.257 30.0032C48.429 29.3152 48.546 28.6283 48.6083 27.9423L48.6082 27.9423L48.6093 27.9324C48.6886 27.2189 48.7362 26.4971 48.7521 25.767L48.7763 24.6555V23.5739C48.7443 22.196 48.5936 20.784 48.3234 19.3377L48.3218 19.329L48.3205 19.3203C48.1928 18.4722 47.9712 17.6477 47.655 16.8463C47.6387 17.1268 47.6164 17.4018 47.5881 17.6713L47.5844 17.7062L47.5759 17.7402C47.5713 17.7586 47.5688 17.7719 47.5676 17.7807C47.5668 17.7861 47.5666 17.7891 47.5665 17.79V17.7998L47.5661 17.8106C47.5492 18.1977 47.5155 18.5773 47.4648 18.9492C47.4123 19.3342 47.3251 19.7176 47.2038 20.0994C47.1356 20.3206 47.0588 20.5345 46.9731 20.741L46.8305 21.1212L46.8306 21.1212L46.8266 21.1313C46.55 21.8228 46.1837 22.4292 45.7241 22.9444C45.3059 23.4649 44.8359 23.8839 44.3118 24.1918C43.3669 24.765 42.4186 25.1602 41.4675 25.3678C40.5714 25.5669 39.6744 25.6998 38.7768 25.7664C38.1802 25.8161 37.5682 25.8408 36.9407 25.8408C36.6243 25.8408 36.3003 25.8325 35.9687 25.8159L35.9687 25.816L35.9604 25.8154C35.7065 25.7985 35.453 25.7654 35.2 25.7162C34.9212 25.6967 34.6433 25.6522 34.3669 25.583C33.8054 25.4427 33.2566 25.2244 32.7208 24.9309C32.1565 24.6307 31.6538 24.2428 31.2139 23.7692C30.9731 23.5278 30.7562 23.2761 30.564 23.014L30.5573 23.0049L30.5511 22.9956C30.3793 22.7379 30.217 22.4643 30.0639 22.1752L30.0588 22.1655L30.0541 22.1556C29.5724 21.1407 29.3259 20.1128 29.3259 19.0759C29.3259 18.9036 29.3342 18.7371 29.3513 18.5766C29.4055 17.3544 29.7349 16.2066 30.3375 15.1391C30.9393 14.073 31.726 13.1982 32.6969 12.5221L32.6969 12.522L32.7019 12.5186C33.6528 11.8733 34.639 11.4254 35.6597 11.1832C36.6383 10.951 37.5875 10.8008 38.5071 10.7339L38.5252 10.7326H38.5433H38.6344C39.4375 10.6355 40.2409 10.5869 41.0444 10.5869C41.9749 10.5869 42.9127 10.6534 43.8579 10.786L43.8579 10.7859L43.8691 10.7877C45.7311 11.0924 47.493 11.8367 49.1521 13.0098L49.1522 13.0097L49.1588 13.0146C50.788 14.2071 52.1064 15.7025 53.1119 17.4958L53.112 17.4958L53.1146 17.5006C54.1057 19.3149 54.6519 21.2728 54.7533 23.3684C54.77 23.6039 54.7785 23.8324 54.7785 24.0538C54.7785 24.2695 54.7705 24.4788 54.7542 24.6813V24.8551V24.8718L54.7531 24.8884C54.7197 25.3894 54.6613 25.8826 54.5778 26.368C54.4257 27.3622 54.1479 28.3454 53.7462 29.317C52.951 31.3119 51.6879 32.9558 49.9635 34.2407L49.9526 34.2488L49.9412 34.2564C48.2018 35.4104 46.3969 36.0979 44.5295 36.3029C43.2141 36.4834 41.8905 36.5737 40.5588 36.5737C40.1155 36.5737 39.6723 36.5655 39.229 36.5491L39.229 36.5492L39.2198 36.5487C38.3123 36.4982 37.3831 36.3556 36.4329 36.1222L36.4309 36.1217C35.9464 36.0006 35.4572 35.8285 34.9635 35.6072L34.9635 35.6073L34.9575 35.6045C34.4693 35.3778 33.9869 35.0842 33.5099 34.7267C32.5115 33.9905 31.7108 32.9749 31.0992 31.7007L31.0944 31.6907L31.0901 31.6805C30.5533 30.4225 30.1861 29.0679 29.9862 27.6188L29.8786 26.8387L30.6304 27.0732L37.7937 29.3072L39.2735 29.7687L37.803 30.2589C37.1512 30.4761 36.733 30.7908 36.4867 31.1726ZM47.3038 16.0454C47.1664 15.7613 47.0167 15.4802 46.8545 15.2021C46.0754 13.8996 44.949 12.9784 43.4539 12.4333C43.0967 12.3146 42.7322 12.2252 42.3603 12.1651C41.962 12.1196 41.5638 12.0968 41.1659 12.0968C40.3852 12.0968 39.628 12.2314 38.8916 12.5011C38.1789 12.7841 37.5682 13.1826 37.0539 13.6963C36.5305 14.2351 36.1598 14.7915 35.9287 15.3639C35.541 16.5153 35.3524 17.5816 35.3524 18.566V18.8088C35.3524 19.1048 35.3443 19.4008 35.3281 19.6967V20.9456C35.3281 21.0728 35.3352 21.2001 35.3493 21.3275C35.3768 21.5746 35.4394 21.8439 35.5415 22.1364C35.6361 22.3921 35.7812 22.6572 35.9834 22.9316L35.9904 22.9411L35.9969 22.9509C36.0708 23.0618 36.1669 23.1788 36.2884 23.3014C36.4162 23.4143 36.5511 23.5204 36.6932 23.6199L36.6932 23.6199L36.6971 23.6227C37.29 24.0462 37.9573 24.2662 38.7133 24.2822C39.4669 24.2662 40.1661 24.0707 40.8186 23.6937C41.45 23.3289 41.8842 22.8609 42.1466 22.291C42.1972 22.0639 42.2199 21.8672 42.2199 21.6984V21.5113C42.1709 21.31 42.0854 21.1406 41.9653 20.9956C41.9152 20.9488 41.8371 20.8933 41.7193 20.8344L41.7096 20.8295L41.7001 20.8242C41.5863 20.761 41.4658 20.7102 41.3379 20.6718L41.3306 20.6696L41.3234 20.6672C41.1923 20.6235 41.0538 20.5796 40.9078 20.5355C40.7514 20.5112 40.5867 20.4986 40.4131 20.4986L40.1921 19.5501L46.9426 16.2234L47.3038 16.0454Z" stroke="url(#paint1_linear_634_54481)"/>
<path d="M57.5667 30.9864L57.5666 30.9864L57.567 30.9766C57.5834 30.6004 57.6079 30.2242 57.6404 29.8481C57.7369 27.7702 57.7933 25.6923 57.8094 23.6145C57.8094 21.5352 57.761 19.456 57.6643 17.3767L57.4945 14.2706L57.4943 14.2706L57.494 14.2587C57.4655 13.3338 57.1034 12.3879 56.3583 11.4148L55.7428 10.6108H56.7553H64.2586H65.2712L64.6556 11.4148C63.9106 12.3879 63.5484 13.3338 63.52 14.2587L63.5201 14.2587L63.5195 14.2706L63.3496 17.3767C63.2529 19.456 63.2046 21.5352 63.2045 23.6144C63.2207 25.6923 63.277 27.7702 63.3735 29.8481C63.4061 30.2242 63.4305 30.6004 63.4469 30.9766L63.447 30.9766L63.4472 30.9864C63.4631 31.6543 63.5029 32.3139 63.5664 32.9652L63.5667 32.9678C63.6548 33.9228 64.0158 34.8882 64.6737 35.8674L65.1969 36.6462H64.2586H56.7553H55.817L56.3403 35.8674C56.9982 34.8882 57.3591 33.9228 57.4473 32.9678L57.4475 32.9652C57.5111 32.3139 57.5508 31.6543 57.5667 30.9864Z" stroke="url(#paint2_linear_634_54481)"/>
<path d="M74.0118 35.6948H74.2389V36.1948L73.7878 36.4104C73.7535 36.3385 73.7198 36.2667 73.6869 36.1948H67.2876C67.2547 36.2667 67.2211 36.3385 67.1868 36.4104L66.7356 36.1948V35.6948H66.9627C67.5185 34.4045 67.8394 33.1142 67.9255 31.824L74.0118 35.6948ZM74.0118 35.6948C73.456 34.4045 73.1351 33.1142 73.0491 31.824L74.0118 35.6948ZM77.6385 27.4873C77.7011 27.4873 77.7786 27.4763 77.8736 27.4464C78.0342 27.3748 78.1993 27.2655 78.3678 27.11L78.3746 27.1037L78.3815 27.0977C78.7892 26.7483 79.1515 26.3144 79.4664 25.7902C80.1178 24.6728 80.5841 23.4613 80.8646 22.1532C81.1651 20.7133 81.3151 19.2748 81.3151 17.8372C81.3151 16.5883 81.2045 15.3304 80.9828 14.0633C80.7453 12.7337 80.3892 11.4359 79.9143 10.1694C79.4474 8.92441 78.8113 7.81613 78.0069 6.84123C77.6154 6.37474 77.1998 5.99731 76.7614 5.70393C76.2786 5.40723 75.8204 5.27311 75.3802 5.27311C74.9237 5.27311 74.448 5.4154 73.9465 5.73065L73.9314 5.74012L73.9157 5.7485C73.7597 5.83171 73.6372 5.94022 73.5418 6.07679C73.4748 6.2588 73.4091 6.6508 73.3786 7.32122L73.3786 7.32174C73.3465 8.0111 73.3305 8.65892 73.3305 9.2654V9.89675V9.90642L73.3302 9.91608C73.2171 12.8393 73.1606 15.7544 73.1606 18.6614C73.1767 21.5855 73.2414 24.5015 73.3545 27.4094L73.3546 27.4132L73.4031 28.9659C73.4031 28.966 73.4031 28.9661 73.4031 28.9662C73.4353 29.9155 73.4836 30.8566 73.5479 31.7896L73.548 31.7907C73.6405 33.178 74.0184 34.5734 74.6901 35.9793L75.032 36.6948H74.2389H66.7356H65.9426L66.2845 35.9793C66.9561 34.5734 67.3341 33.178 67.4266 31.7907L67.4266 31.7896C67.4908 30.8594 67.5309 29.921 67.5469 28.9744L67.5469 28.9744L67.5471 28.9673C67.5634 28.4465 67.5878 27.9257 67.6202 27.4049C67.717 24.4985 67.7735 21.584 67.7897 18.6614C67.7897 15.7544 67.7331 12.8394 67.6201 9.91618C67.6201 9.91615 67.6201 9.91611 67.6201 9.91608L67.4501 5.5453L67.4499 5.54531L67.4498 5.53143C67.4346 4.16862 67.049 2.78367 66.2731 1.3715L65.8661 0.630726H66.7113H72.5915C72.7909 0.614634 72.9839 0.606445 73.1705 0.606445C73.4645 0.606445 73.7583 0.623688 74.052 0.658129C74.5296 0.709464 75.0061 0.802885 75.481 0.937859C75.9422 1.04549 76.3849 1.21455 76.8082 1.44384L76.8083 1.44375L76.8172 1.44884C77.6888 1.94445 78.4178 2.54059 78.9955 3.24079L78.9955 3.24076L79.0002 3.24664C79.5383 3.91921 79.9869 4.61243 80.344 5.32655L80.3441 5.32648L80.3492 5.33726C81.0111 6.74374 81.501 8.16208 81.8171 9.59192C82.145 11.0025 82.3829 12.4215 82.5307 13.8491C82.6937 15.2678 82.8078 16.6867 82.8731 18.1056C82.9382 19.5057 82.9707 20.9298 82.9707 22.378C82.9707 23.8338 82.9053 25.3212 82.7746 26.8403L82.7738 26.8499L82.7726 26.8595C82.7537 27.0104 82.7337 27.1614 82.7124 27.3124C83.6716 26.9812 84.4567 26.3007 85.0657 25.2248C85.6803 24.0236 86.0587 22.7118 86.1983 21.2852L86.1983 21.2851C86.2777 20.4756 86.3173 19.6663 86.3173 18.857C86.3173 18.222 86.2935 17.5869 86.2459 16.9518L86.2458 16.9514C86.1174 15.2168 85.9166 13.4821 85.6435 11.7471L85.6435 11.7471L85.6427 11.7419C85.464 10.5232 85.3015 9.29638 85.1552 8.06151L85.1552 8.06113C85.088 7.48985 85.0546 6.89558 85.0546 6.27863C85.0546 6.0454 85.0628 5.80514 85.0789 5.55796V5.50159C85.0789 4.53638 85.4313 3.53745 86.0792 2.51442L86.0959 2.48812L86.1157 2.46409C86.8662 1.55273 87.8222 0.965938 88.9688 0.71512L88.9688 0.715105L88.9726 0.714295C89.3167 0.641857 89.6751 0.606445 90.0469 0.606445C90.1866 0.606445 90.3261 0.614556 90.4654 0.630726H96.1661H96.2156L96.2642 0.640436C96.3078 0.649153 96.3634 0.655007 96.4332 0.655007H96.4337H96.4342H96.4347H96.4351H96.4356H96.4361H96.4366H96.437H96.4375H96.438H96.4385H96.4389H96.4394H96.4399H96.4403H96.4408H96.4413H96.4418H96.4422H96.4427H96.4432H96.4436H96.4441H96.4446H96.445H96.4455H96.446H96.4465H96.4469H96.4474H96.4479H96.4483H96.4488H96.4493H96.4497H96.4502H96.4507H96.4511H96.4516H96.4521H96.4525H96.453H96.4535H96.4539H96.4544H96.4549H96.4553H96.4558H96.4563H96.4567H96.4572H96.4577H96.4581H96.4586H96.4591H96.4595H96.46H96.4604H96.4609H96.4614H96.4618H96.4623H96.4628H96.4632H96.4637H96.4641H96.4646H96.4651H96.4655H96.466H96.4665H96.4669H96.4674H96.4678H96.4683H96.4688H96.4692H96.4697H96.4701H96.4706H96.4711H96.4715H96.472H96.4724H96.4729H96.4733H96.4738H96.4743H96.4747H96.4752H96.4756H96.4761H96.4766H96.477H96.4775H96.4779H96.4784H96.4788H96.4793H96.4797H96.4802H96.4807H96.4811H96.4816H96.482H96.4825H96.4829H96.4834H96.4838H96.4843H96.4847H96.4852H96.4857H96.4861H96.4866H96.487H96.4875H96.4879H96.4884H96.4888H96.4893H96.4897H96.4902H96.4906H96.4911H96.4915H96.492H96.4924H96.4929H96.4933H96.4938H96.4942H96.4947H96.4951H96.4956H96.496H96.4965H96.4969H96.4974H96.4978H96.4983H96.4987H96.4992H96.4996H96.5001H96.5005H96.501H96.5014H96.5019H96.5023H96.5027H96.5032H96.5036H96.5041H96.5045H96.505H96.5054H96.5059H96.5063H96.5068H96.5072H96.5076H96.5081H96.5085H96.509H96.5094H96.5099H96.5103H96.5108H96.5112H96.5116H96.5121H96.5125H96.513H96.5134H96.5138H96.5143H96.5147H96.5152H96.5156H96.5161H96.5165H96.5169H96.5174H96.5178H96.5183H96.5187H96.5191H96.5196H96.52H96.5205H96.5209H96.5213H96.5218H96.5222H96.5226H96.5231H96.5235H96.524H96.5244H96.5248H96.5253H96.5257H96.5261H96.5266H96.527H96.5275H96.5279H96.5283H96.5288H96.5292H96.5296H96.5301H96.5305H96.5309H96.5314H96.5318H96.5322H96.5327H96.5331H96.5335H96.534H96.5344H96.5348H96.5353H96.5357H96.5361H96.5366H96.537H96.5374H96.5379H96.5383H96.5387H96.5392H96.5396H96.54H96.5404H96.5409H96.5413H96.5417H96.5422H96.5426H96.543H96.5435H96.5439H96.5443H96.5447H96.5452H96.5456H96.546H96.5465H96.5469H96.5473H96.5477H96.5482H96.5486H96.549H96.5494H96.5499H96.5503H96.5507H96.5511H96.5516H96.552H96.5524H96.5528H96.5533H96.5537H96.5541H96.5545H96.555H96.5554H96.5558H96.5562H96.5567H96.5571H96.5575H96.5579H96.5584H96.5588H96.5592H96.5596H96.56H96.5605H96.5609H96.5613H96.5617H96.5622H96.5626H96.563H96.5634H96.5638H96.5643H96.5647H96.5651H96.5655H96.5659H96.5664H96.5668H96.5672H96.5676H96.568H96.5684H96.5689H96.5693H96.5697H96.5701H96.5705H96.571H96.5714H96.5718H96.5722H96.5726H96.573H96.5734H96.5739H96.5743H96.5747H96.5751H96.5755H96.5759H96.5764H96.5768H96.5772H96.5776H96.578H96.5784H96.5788H96.5793H96.5797H96.5801H96.5805H96.5809H96.5813H96.5817H96.5821H96.5826H96.583H96.5834H96.5838H96.5842H96.5846H96.585H96.5854H96.5858H96.5863H96.5867H96.5871H96.5875H96.5879H96.5883H96.5887H96.5891H96.5895H96.5899H96.5903H96.5908H96.5912H96.5916H96.592H96.5924H96.5928H96.5932H96.5936H96.594H96.5944H96.5948H96.5952H96.5956H96.596H96.5965H96.5969H96.5973H96.5977H96.5981H96.5985H96.5989H96.5993H96.5997H96.6001H96.6005H96.6009H96.6013H96.6017H96.6021H96.6025H96.6029H96.6033H96.6037H96.6041H96.6045H96.6049H96.6053H96.6057H96.6061H96.6065H96.6069H96.6073H96.6077H96.6081H96.6085H96.6089H96.6093H96.6097H96.6101H96.6105H96.6109H96.6113H96.6117H96.6121H96.6125H96.6129H96.6133H96.6137H96.6141H96.6145H96.6149H96.6153H96.6157H96.6161H96.6165H96.6169H96.6173H96.6177H96.6181H96.6185H96.6189H96.6193H96.6197H96.6201H96.6204H96.6208H96.6212H96.6216H96.622H96.6224H96.6228H96.6232H96.6236H96.624H96.6244H96.6248H96.6252H96.6256H96.626H96.6263H96.6267H96.6271H96.6275H96.6279H96.6283H96.6287H96.6291H96.6295H96.6299H96.6303H96.6306H96.631H96.6314H96.6318H96.6322H96.6326H96.633H96.6334H96.6338H96.6341H96.6345H96.6349H96.6353H96.6357H96.6361H96.6365H96.6369H96.6372H96.6376H96.638H96.6384H96.6388H96.6392H96.6396H96.6399H96.6403H96.6407H96.6411H96.6415H96.6419H96.6422H96.6426H96.643H96.6434H96.6438H96.6442H96.6445H96.6449H96.6453H96.6457H96.6461H96.6465H96.6468H96.6472H96.6476H96.648H96.6484H96.6487H96.6491H96.6495H96.6499H96.6503H96.6507H96.651H96.6514H96.6518C96.657 0.655007 96.6594 0.654862 96.6594 0.654846C96.6593 0.65483 96.6567 0.654955 96.6518 0.655538C96.6472 0.656085 96.6407 0.657034 96.6327 0.658645C96.6195 0.661282 96.5929 0.667478 96.5596 0.681774C96.5299 0.694463 96.4822 0.718972 96.4332 0.764115C96.4287 0.768289 96.4242 0.772639 96.4196 0.777173L96.4332 0.787338L96.6518 0.950728L97.2123 1.36981C96.4524 2.76559 96.0651 4.15307 96.0347 5.53686L96.0347 5.53686L96.0344 5.5453L95.8645 9.91332C95.8645 9.9138 95.8645 9.91428 95.8645 9.91475C95.7676 12.8384 95.7191 15.754 95.7191 18.6614C95.7353 21.5855 95.7999 24.5015 95.913 27.4094H95.913L95.9131 27.4132L95.9617 28.9659C95.9617 28.9662 95.9617 28.9664 95.9617 28.9666C95.9939 29.9158 96.0421 30.8568 96.1065 31.7896L96.1065 31.7907C96.199 33.178 96.577 34.5734 97.2486 35.9793L97.5905 36.6948H96.7975H89.2699H88.4768L88.8187 35.9793C89.4904 34.5734 89.8683 33.178 89.9608 31.7907L89.9609 31.7896C90.0252 30.8567 90.0735 29.9157 90.1057 28.9666C90.1057 28.9664 90.1057 28.9662 90.1057 28.9659L90.1542 27.4132L90.1544 27.4094C90.2674 24.502 90.3321 21.5864 90.3482 18.6628C90.3321 15.7544 90.2755 12.8379 90.1785 9.91332L90.1785 9.91332L90.1784 9.90656C90.1623 9.08748 90.1302 8.26838 90.082 7.44928L90.0819 7.44929L90.0815 7.43776C90.0653 6.98428 90.0491 6.5227 90.0329 6.05304L90.0326 6.04442V6.03581C90.0326 5.9772 90.023 5.92765 90.0062 5.88343C89.9912 5.85776 89.9733 5.84171 89.9447 5.8274L89.9275 5.81881L89.9111 5.80893C89.6063 5.62605 89.2945 5.46642 88.9758 5.32981L88.9623 5.32402L88.9491 5.31745C88.9347 5.31023 88.9229 5.30494 88.9136 5.30115C88.9099 5.29961 88.9067 5.29838 88.904 5.2974H88.8684L88.8087 5.28247C88.7907 5.27798 88.7779 5.27521 88.7694 5.27359C88.7683 5.27368 88.7672 5.27377 88.7664 5.27386C88.7412 5.28343 88.7072 5.30436 88.666 5.36613C88.1341 6.16401 87.8375 7.05742 87.7778 8.05679L87.777 8.07114L87.7753 8.08541C87.6481 9.16613 87.5844 10.2717 87.5844 11.4023C87.5844 11.7343 87.5923 12.0663 87.6082 12.3984L87.6086 12.4067L87.6087 12.415C87.6248 13.5432 87.657 14.6714 87.7054 15.7997C87.7054 15.7999 87.7054 15.8001 87.7054 15.8003L87.7537 16.8636C87.8189 17.9409 87.8515 19.0181 87.8515 20.0954C87.8515 20.5198 87.8434 20.9519 87.8273 21.3917C87.8264 22.9395 87.6179 24.5085 87.2041 26.0978L87.2041 26.0978L87.2028 26.1025C86.9781 26.9321 86.6165 27.7311 86.1219 28.4989C85.6203 29.2941 84.9817 29.9918 84.2104 30.5917C83.4464 31.1859 82.6144 31.6698 81.7154 32.0429L81.711 32.0448C80.8507 32.3922 79.966 32.6898 79.057 32.9377L78.5992 33.0625L78.4506 32.6119L76.9694 28.1196L76.6853 27.2579L77.5655 27.478C77.5918 27.4845 77.6159 27.4873 77.6385 27.4873Z" stroke="url(#paint3_linear_634_54481)"/>
<path d="M59.2731 3.81631C59.2304 3.85422 59.1873 3.89075 59.1439 3.92599H60.06L60.06 2.86887C59.8995 3.12822 59.7267 3.35451 59.542 3.55328C59.4545 3.64745 59.3648 3.73489 59.2731 3.81631L58.9411 3.44243L59.2731 3.81631ZM61.06 2.86912L61.06 3.92599H61.9759C61.9325 3.89075 61.8894 3.85422 61.8467 3.81631L62.1399 3.48615L61.8467 3.81631C61.7551 3.73489 61.6653 3.64745 61.5778 3.55328C61.3931 3.35457 61.2204 3.12836 61.06 2.86912ZM61.8469 5.03563C61.8896 4.99773 61.9327 4.96121 61.976 4.92599H61.06V5.98306C61.2205 5.72372 61.3933 5.49743 61.578 5.29866C61.6655 5.20449 61.7552 5.11705 61.8469 5.03563ZM60.06 5.98281V4.92599H59.1442C59.1875 4.96121 59.2306 4.99773 59.2733 5.03563C59.365 5.11705 59.4547 5.20449 59.5422 5.29866C59.7269 5.49737 59.8996 5.72358 60.06 5.98281Z" stroke="url(#paint4_linear_634_54481)"/>
<defs>
<linearGradient id="paint0_linear_634_54481" x1="15.4749" y1="11.1592" x2="15.4749" y2="36.2188" gradientUnits="userSpaceOnUse">
<stop stop-color="white"/>
<stop offset="1" stop-color="#999999"/>
</linearGradient>
<linearGradient id="paint1_linear_634_54481" x1="42.0522" y1="11.0869" x2="42.0522" y2="36.0737" gradientUnits="userSpaceOnUse">
<stop stop-color="white"/>
<stop offset="1" stop-color="#999999"/>
</linearGradient>
<linearGradient id="paint2_linear_634_54481" x1="60.507" y1="11.1108" x2="60.507" y2="36.1462" gradientUnits="userSpaceOnUse">
<stop stop-color="white"/>
<stop offset="1" stop-color="#999999"/>
</linearGradient>
<linearGradient id="paint3_linear_634_54481" x1="81.7544" y1="1.10645" x2="81.7544" y2="36.1948" gradientUnits="userSpaceOnUse">
<stop stop-color="white"/>
<stop offset="1" stop-color="#999999"/>
</linearGradient>
<linearGradient id="paint4_linear_634_54481" x1="60.5599" y1="0" x2="60.5599" y2="8.85194" gradientUnits="userSpaceOnUse">
<stop stop-color="white"/>
<stop offset="1" stop-color="#999999"/>
</linearGradient>
</defs>
</svg>
