<svg width="49" height="61" viewBox="0 0 49 61" fill="none" xmlns="http://www.w3.org/2000/svg">
<path d="M47.0655 4.5C47.8112 4.78974 47.8112 4.7898 47.8111 4.78988L47.811 4.79014L47.8107 4.791L47.8095 4.79411L47.8049 4.80587L47.7871 4.85119C47.7715 4.89099 47.7483 4.94979 47.7178 5.02665C47.6568 5.18038 47.5665 5.40636 47.4484 5.69708C47.2123 6.27848 46.8654 7.11897 46.421 8.1583C45.5323 10.2365 44.2526 13.112 42.6881 16.3022L42.6869 16.3047C41.4112 18.8833 40.1594 21.3612 39.2267 23.1941C38.7603 24.1106 38.3736 24.8661 38.1034 25.3926C37.9683 25.6559 37.8623 25.8618 37.7901 26.0021L37.7685 26.0441V44.996L38.077 45.7676C40.0222 40.5468 41.749 35.2377 43.1777 29.7968L43.1779 29.7959C44.5643 24.5417 45.6223 19.6215 46.3337 16.014C46.6893 14.2106 46.9581 12.7364 47.1379 11.7138C47.2278 11.2025 47.2954 10.8042 47.3405 10.5342C47.363 10.3992 47.3799 10.2963 47.3912 10.2273L47.4037 10.1496L47.4068 10.1304L47.4076 10.1257L47.4078 10.1246L47.4078 10.1244L48.2 10.2285V2.05H35.2016L26.0762 25.259C26.0906 25.2984 26.1064 25.3415 26.1234 25.3881C26.22 25.6527 26.3566 26.0302 26.5168 26.4831C26.837 27.388 27.2533 28.5976 27.6346 29.81L27.6374 29.8187L27.6373 29.8187C28.2046 31.6975 28.8071 33.7504 29.2674 35.3328C29.4443 35.9408 29.6003 36.4796 29.7253 36.9126C31.1666 34.0921 34.8522 26.8287 38.3899 19.8507C40.4305 15.8258 42.421 11.8978 43.9013 8.97594L45.6817 5.46155L46.1771 4.4835L46.3072 4.22655L46.3406 4.16077L46.349 4.14413L46.3511 4.13994L46.3516 4.1389C46.3517 4.13866 46.3518 4.13855 47.0655 4.5ZM47.0655 4.5L47.8112 4.78974L46.3518 4.13855L47.0655 4.5ZM48.2 47.3H39.2291C39.2444 47.2469 39.2602 47.1912 39.2768 47.133C41.7838 41.8609 43.8675 36.335 45.3854 30.6049L45.3868 30.5994C46.5696 26.0032 47.502 21.3359 48.2 16.631V47.3Z" stroke="white" stroke-width="1.6"/>
<path d="M2.05358 3.3C2.76289 2.93002 2.76295 2.93014 2.76308 2.93038L2.76364 2.93147L2.7659 2.9358L2.7749 2.95304L2.81044 3.02119L2.94928 3.28735L3.47779 4.30049L5.37704 7.94087C6.95616 10.9674 9.07933 15.0361 11.2556 19.2048C15.6071 27.5403 20.1677 36.2696 21.0185 37.8726C21.124 38.0679 21.2034 38.1841 21.2548 38.25H28.329L14.3071 0.857426L1.67402 2.12381V3.42935L2.76289 2.93002L2.05358 3.3ZM2.05358 3.3L1.67402 3.45123V3.45124C1.77186 3.41225 1.89602 3.36278 2.05358 3.3ZM1.67402 4.49096V45.1603C2.01191 44.5016 2.44798 43.646 2.93118 42.6845C4.03842 40.4813 5.38743 37.7337 6.37024 35.5269C8.10759 31.5537 9.62082 27.4884 10.8671 23.3308C10.8157 23.2314 10.7514 23.1074 10.6752 22.9606C10.4559 22.5378 10.1377 21.926 9.74299 21.1705C8.95345 19.6594 7.85755 17.574 6.63216 15.2765L1.67402 4.49096ZM1.67402 4.49096C1.70579 4.56826 1.73946 4.64998 1.77494 4.73588C2.06907 5.448 2.48826 6.44789 2.98894 7.60008C3.98842 9.90019 5.31945 12.823 6.63213 15.2765L1.67402 4.49096ZM1.67402 47.6528V46.9343L2.35475 47.3236C4.39571 44.0542 6.2967 40.6804 8.00896 37.1525C9.44638 34.2577 10.6739 30.9841 11.5395 28.4457C11.6044 28.2555 11.6672 28.0693 11.7281 27.8876V45.7566C11.241 46.2724 10.4578 46.6895 9.43751 47.0023C8.30998 47.3481 6.99597 47.5355 5.72359 47.6271C4.45624 47.7182 3.2589 47.7123 2.37629 47.6832C2.11071 47.6745 1.87436 47.6637 1.67402 47.6528ZM24.0961 52.3H24.6088V53.9697L23.5897 53.8026L24.0961 52.3ZM18.7351 53.8026L17.716 53.9697V52.3H18.2287L18.7351 53.8026ZM33.7517 60.2L33.3633 58.8282L33.7721 60.2H33.7517ZM47.518 58.8279L47.9268 60.2H47.9064L47.518 58.8279Z" stroke="white" stroke-width="1.6"/>
</svg>
