<svg width="99" height="38" viewBox="0 0 99 38" fill="none" xmlns="http://www.w3.org/2000/svg">
<path d="M88.9274 36.0569L88.7008 36.7188H89.4005H96.9038H97.6209L97.373 36.046C96.8256 34.5603 96.5193 32.9776 96.4564 31.2951L96.4565 31.2951L96.456 31.2857C96.3756 29.8546 96.3354 28.3989 96.3354 26.9186V24.9274C96.3354 23.5639 96.2532 22.1769 96.0893 20.7665C95.8691 18.82 95.1592 16.904 93.9762 15.0212L93.9762 15.0212L93.9734 15.0168C93.6615 14.5317 93.2906 14.0751 92.8622 13.6467L92.5086 14.0002L92.8622 13.6467C92.8104 13.5949 92.7552 13.5463 92.6963 13.5024C92.543 13.3361 92.3753 13.1789 92.1939 13.0305L92.1939 13.0305L92.1897 13.027C91.9352 12.8235 91.6883 12.6541 91.4495 12.524C90.5949 11.9893 89.6827 11.5549 88.7136 11.2207L88.7136 11.2206L88.7038 11.2175C87.7034 10.8953 86.6914 10.7248 85.6693 10.7078L85.6693 10.7077H85.661H85.3453C84.4274 10.7077 83.5401 10.8268 82.6851 11.0662L82.685 11.0661L82.6735 11.0696C80.8049 11.642 79.2188 12.5804 77.9267 13.8883C77.6226 14.1847 77.3392 14.498 77.0765 14.8282L77.1029 14.3174L77.103 14.3174L77.1033 14.3073C77.1317 13.3993 77.4932 12.4524 78.2412 11.4602L78.845 10.6592H77.842H70.3386H69.3355L69.9394 11.4602C70.6873 12.4524 71.0489 13.3993 71.0773 14.3073L71.0771 14.3073L71.0778 14.3187L71.2476 17.4492C71.3443 19.5285 71.3927 21.6078 71.3927 23.6871C71.3766 25.7683 71.3201 27.8495 71.2233 29.9307L71.2232 29.9322L71.1748 31.0466C71.1747 31.047 71.1747 31.0475 71.1747 31.0479C71.1427 31.7033 71.0947 32.367 71.0307 33.039L71.0307 33.0397C70.9427 33.9782 70.5819 34.9449 69.9216 35.943L69.4083 36.7188H70.3386H77.842H78.7722L78.259 35.943C77.5987 34.9449 77.2379 33.9782 77.1499 33.0397L77.1499 33.039C77.0862 32.3704 77.0464 31.7104 77.0305 31.0587L77.0306 31.0587L77.0302 31.0492C77.0139 30.673 76.9894 30.2968 76.9568 29.9207C76.8603 27.8428 76.804 25.765 76.7879 23.6871C76.7879 21.6631 76.8352 19.6311 76.9297 17.5911C77.0441 17.2631 77.1902 16.9559 77.3678 16.6687C77.7702 16.0283 78.2844 15.476 78.9142 15.0109C80.1291 14.1305 81.4272 13.6989 82.8199 13.6989H83.02C84.4687 13.8078 85.687 14.2968 86.6963 15.1577L86.7057 15.1657L86.7154 15.1732C87.2548 15.5893 87.7392 16.0508 88.1693 16.5577L88.1826 16.5733L88.197 16.5878C88.2985 16.6893 88.3467 16.753 88.3647 16.7829L88.3963 16.8356L88.4398 16.8792L88.4616 16.9009C88.486 16.9348 88.5113 16.9728 88.5376 17.0151C88.5645 17.0786 88.5998 17.1401 88.6447 17.1974C88.7557 17.4093 88.8609 17.6355 88.9603 17.8764C89.3815 18.9697 89.713 20.2447 89.9511 21.7054L89.951 21.7055L89.9531 21.7168C90.2239 23.1662 90.3996 24.6897 90.4795 26.2879C90.4953 26.6038 90.5031 26.9112 90.5031 27.21C90.5031 28.4614 90.4002 29.7383 90.1936 31.0412L90.1931 31.0446C89.9554 32.6131 89.5345 34.2836 88.9274 36.0569Z" stroke="url(#paint0_linear_553_93060)"/>
<path d="M62.6094 31.1726L62.6159 31.1825L62.6227 31.1921C62.8045 31.4466 62.8938 31.7253 62.8938 32.0428C62.8938 32.182 62.8705 32.3457 62.8159 32.5368L63.2967 32.6741L62.8159 32.5368C62.7379 32.81 62.6078 33.0664 62.4214 33.3077C62.2056 33.5658 61.9607 33.8039 61.686 34.0219C61.0831 34.4461 60.406 34.7407 59.6497 34.9043C59.035 35.0269 58.4216 35.0881 57.8088 35.0881C56.8459 35.0881 55.8978 34.9359 54.9625 34.6302C53.4456 34.0671 52.3393 33.1598 51.6116 31.9123L51.6116 31.9123L51.6084 31.907C51.2462 31.3033 50.9914 30.6726 50.8416 30.0137L50.8417 30.0136L50.8391 30.0032C50.6671 29.3152 50.5501 28.6283 50.4878 27.9423L50.4879 27.9423L50.4868 27.9324C50.4075 27.2189 50.3599 26.4971 50.344 25.767L50.3198 24.6555V23.5739C50.3518 22.196 50.5025 20.784 50.7727 19.3377L50.7743 19.329L50.7756 19.3203C50.9033 18.4722 51.1249 17.6477 51.4411 16.8463C51.4574 17.1268 51.4797 17.4018 51.508 17.6713L51.5117 17.7062L51.5202 17.7402C51.5248 17.7586 51.5273 17.7719 51.5285 17.7807C51.5293 17.7861 51.5295 17.7891 51.5296 17.79V17.7998L51.53 17.8106C51.5469 18.1977 51.5806 18.5773 51.6313 18.9492C51.6838 19.3342 51.771 19.7176 51.8923 20.0994C51.9605 20.3206 52.0373 20.5345 52.123 20.741L52.2656 21.1212L52.2655 21.1212L52.2695 21.1313C52.5461 21.8228 52.9124 22.4292 53.372 22.9444C53.7902 23.4649 54.2602 23.8839 54.7843 24.1918C55.7292 24.765 56.6775 25.1602 57.6286 25.3678C58.5247 25.5669 59.4217 25.6998 60.3193 25.7664C60.9159 25.8161 61.5279 25.8408 62.1554 25.8408C62.4718 25.8408 62.7958 25.8325 63.1274 25.8159L63.1274 25.816L63.1357 25.8154C63.3896 25.7985 63.6431 25.7654 63.8961 25.7162C64.1749 25.6967 64.4528 25.6522 64.7292 25.583C65.2907 25.4427 65.8395 25.2244 66.3753 24.9309C66.9396 24.6307 67.4423 24.2428 67.8822 23.7692C68.123 23.5278 68.3399 23.2761 68.5321 23.014L68.5388 23.0049L68.545 22.9956C68.7168 22.7379 68.8791 22.4643 69.0322 22.1752L69.0373 22.1655L69.042 22.1556C69.5237 21.1407 69.7702 20.1128 69.7702 19.0759C69.7702 18.9036 69.7619 18.7371 69.7448 18.5766C69.6906 17.3544 69.3612 16.2066 68.7586 15.1391C68.1568 14.073 67.3701 13.1982 66.3992 12.5221L66.3992 12.522L66.3942 12.5186C65.4433 11.8733 64.4571 11.4254 63.4364 11.1832C62.4578 10.951 61.5086 10.8008 60.589 10.7339L60.5709 10.7326H60.5528H60.4617C59.6586 10.6355 58.8552 10.5869 58.0517 10.5869C57.1212 10.5869 56.1834 10.6534 55.2382 10.786L55.2382 10.7859L55.227 10.7877C53.365 11.0924 51.6031 11.8367 49.944 13.0098L49.9439 13.0097L49.9373 13.0146C48.3081 14.2071 46.9897 15.7025 45.9842 17.4958L45.9841 17.4958L45.9815 17.5006C44.9904 19.3149 44.4442 21.2728 44.3428 23.3684C44.3261 23.6039 44.3176 23.8324 44.3176 24.0538C44.3176 24.2695 44.3256 24.4788 44.3419 24.6813V24.8551V24.8718L44.343 24.8884C44.3764 25.3894 44.4348 25.8826 44.5183 26.368C44.6704 27.3622 44.9482 28.3454 45.3499 29.317C46.1451 31.3119 47.4082 32.9558 49.1326 34.2407L49.1435 34.2488L49.1549 34.2564C50.8943 35.4104 52.6992 36.0979 54.5666 36.3029C55.882 36.4834 57.2056 36.5737 58.5373 36.5737C58.9806 36.5737 59.4238 36.5655 59.8671 36.5491L59.8671 36.5492L59.8763 36.5487C60.7838 36.4982 61.713 36.3556 62.6632 36.1222L62.6652 36.1217C63.1497 36.0006 63.6389 35.8285 64.1326 35.6072L64.1326 35.6073L64.1386 35.6045C64.6268 35.3778 65.1092 35.0842 65.5862 34.7267C66.5846 33.9905 67.3853 32.9749 67.9969 31.7007L68.0017 31.6907L68.006 31.6805C68.5428 30.4225 68.91 29.0679 69.1099 27.6188L69.2175 26.8387L68.4657 27.0732L61.3024 29.3072L59.8226 29.7687L61.2931 30.2589C61.9449 30.4761 62.3631 30.7908 62.6094 31.1726ZM51.7923 16.0454C51.9297 15.7613 52.0794 15.4802 52.2416 15.2021C53.0207 13.8996 54.1471 12.9784 55.6422 12.4333C55.9994 12.3146 56.3639 12.2252 56.7358 12.1651C57.1341 12.1196 57.5323 12.0968 57.9302 12.0968C58.7109 12.0968 59.4681 12.2314 60.2045 12.5011C60.9172 12.7841 61.5279 13.1826 62.0422 13.6963C62.5656 14.2351 62.9363 14.7915 63.1674 15.3639C63.5551 16.5153 63.7437 17.5816 63.7437 18.566V18.8088C63.7437 19.1048 63.7518 19.4008 63.768 19.6967V20.9456C63.768 21.0728 63.7609 21.2001 63.7468 21.3275C63.7193 21.5746 63.6567 21.8439 63.5546 22.1364C63.46 22.3921 63.3149 22.6572 63.1127 22.9316L63.1057 22.9411L63.0992 22.9509C63.0253 23.0618 62.9292 23.1788 62.8077 23.3014C62.6799 23.4143 62.545 23.5204 62.4029 23.6199L62.4029 23.6199L62.399 23.6227C61.8061 24.0462 61.1388 24.2662 60.3828 24.2822C59.6292 24.2662 58.93 24.0707 58.2775 23.6937C57.6461 23.3289 57.2119 22.8609 56.9495 22.291C56.8989 22.0639 56.8762 21.8672 56.8762 21.6984V21.5113C56.9252 21.31 57.0107 21.1406 57.1308 20.9956C57.1809 20.9488 57.259 20.8933 57.3768 20.8344L57.3865 20.8295L57.396 20.8242C57.5098 20.761 57.6303 20.7102 57.7582 20.6718L57.7655 20.6696L57.7727 20.6672C57.9038 20.6235 58.0423 20.5796 58.1883 20.5355C58.3447 20.5112 58.5094 20.4986 58.683 20.4986L58.904 19.5501L52.1535 16.2234L51.7923 16.0454Z" stroke="url(#paint1_linear_553_93060)"/>
<path d="M41.5293 30.9864L41.5294 30.9864L41.529 30.9766C41.5126 30.6004 41.4882 30.2242 41.4556 29.8481C41.3591 27.7702 41.3028 25.6923 41.2866 23.6145C41.2867 21.5352 41.335 19.456 41.4317 17.3767L41.6016 14.2706L41.6017 14.2706L41.6021 14.2587C41.6305 13.3338 41.9927 12.3879 42.7377 11.4148L43.3533 10.6108H42.3407H34.8374H33.8249L34.4404 11.4148C35.1855 12.3879 35.5476 13.3338 35.5761 14.2587L35.5759 14.2587L35.5766 14.2706L35.7464 17.3767C35.8431 19.456 35.8915 21.5352 35.8915 23.6144C35.8754 25.6923 35.819 27.7702 35.7225 29.8481C35.69 30.2242 35.6655 30.6004 35.6491 30.9766L35.649 30.9766L35.6488 30.9864C35.6329 31.6543 35.5932 32.3139 35.5296 32.9652L35.5294 32.9678C35.4412 33.9228 35.0803 34.8882 34.4224 35.8674L33.8991 36.6462H34.8374H42.3407H43.279L42.7558 35.8674C42.0979 34.8882 41.7369 33.9228 41.6488 32.9678L41.6485 32.9652C41.585 32.3139 41.5452 31.6543 41.5293 30.9864Z" stroke="url(#paint2_linear_553_93060)"/>
<path d="M25.0843 35.6948H24.8571V36.1948L25.3083 36.4104C25.3426 36.3385 25.3762 36.2667 25.4092 36.1948H31.8084C31.8414 36.2667 31.875 36.3385 31.9093 36.4104L32.3605 36.1948V35.6948H32.1333C31.5775 34.4045 31.2566 33.1142 31.1706 31.824L25.0843 35.6948ZM25.0843 35.6948C25.6401 34.4045 25.961 33.1142 26.047 31.824L25.0843 35.6948ZM21.4576 27.4873C21.395 27.4873 21.3174 27.4763 21.2225 27.4464C21.0619 27.3748 20.8968 27.2655 20.7283 27.11L20.7215 27.1037L20.7145 27.0977C20.3069 26.7483 19.9445 26.3144 19.6297 25.7902C18.9783 24.6728 18.512 23.4613 18.2315 22.1532C17.931 20.7133 17.781 19.2748 17.781 17.8372C17.781 16.5883 17.8916 15.3304 18.1133 14.0633C18.3508 12.7337 18.7069 11.4359 19.1818 10.1694C19.6487 8.92441 20.2848 7.81613 21.0892 6.84123C21.4807 6.37474 21.8963 5.99731 22.3347 5.70393C22.8175 5.40723 23.2757 5.27311 23.7159 5.27311C24.1724 5.27311 24.648 5.4154 25.1495 5.73065L25.1646 5.74012L25.1803 5.7485C25.3364 5.83171 25.4589 5.94022 25.5543 6.07679C25.6213 6.2588 25.687 6.6508 25.7175 7.32122L25.7175 7.32174C25.7496 8.0111 25.7655 8.65892 25.7655 9.2654V9.89675V9.90642L25.7659 9.91608C25.879 12.8393 25.9355 15.7544 25.9355 18.6614C25.9193 21.5855 25.8547 24.5015 25.7416 27.4094L25.7415 27.4132L25.693 28.9659C25.693 28.966 25.693 28.9661 25.693 28.9662C25.6608 29.9155 25.6125 30.8566 25.5482 31.7896L25.5481 31.7907C25.4556 33.178 25.0777 34.5734 24.406 35.9793L24.0641 36.6948H24.8571H32.3605H33.1535L32.8116 35.9793C32.1399 34.5734 31.762 33.178 31.6695 31.7907L31.6694 31.7896C31.6053 30.8594 31.5652 29.921 31.5491 28.9744L31.5492 28.9744L31.549 28.9673C31.5327 28.4465 31.5083 27.9257 31.4758 27.4049C31.379 24.4985 31.3225 21.584 31.3064 18.6614C31.3064 15.7544 31.3629 12.8394 31.476 9.91618C31.476 9.91615 31.476 9.91611 31.476 9.91608L31.646 5.5453L31.6461 5.54531L31.6463 5.53143C31.6614 4.16862 32.047 2.78367 32.823 1.3715L33.23 0.630726H32.3847H26.5045C26.3052 0.614634 26.1122 0.606445 25.9256 0.606445C25.6316 0.606445 25.3377 0.623688 25.0441 0.658129C24.5664 0.709464 24.09 0.802885 23.615 0.937859C23.1538 1.04549 22.7112 1.21455 22.2879 1.44384L22.2878 1.44375L22.2789 1.44884C21.4073 1.94445 20.6782 2.54059 20.1006 3.24079L20.1005 3.24076L20.0958 3.24664C19.5578 3.91921 19.1091 4.61243 18.7521 5.32655L18.7519 5.32648L18.7469 5.33726C18.085 6.74374 17.5951 8.16208 17.279 9.59192C16.9511 11.0025 16.7132 12.4215 16.5654 13.8491C16.4024 15.2678 16.2882 16.6867 16.223 18.1056C16.1579 19.5057 16.1253 20.9298 16.1253 22.378C16.1253 23.8338 16.1908 25.3212 16.3214 26.8403L16.3223 26.8499L16.3234 26.8595C16.3423 27.0104 16.3624 27.1614 16.3837 27.3124C15.4245 26.9812 14.6394 26.3007 14.0303 25.2248C13.4158 24.0236 13.0373 22.7118 12.8978 21.2852L12.8978 21.2851C12.8184 20.4756 12.7787 19.6663 12.7787 18.857C12.7787 18.222 12.8026 17.5869 12.8502 16.9518L12.8502 16.9514C12.9787 15.2168 13.1795 13.4821 13.4526 11.7471L13.4526 11.7471L13.4534 11.7419C13.6321 10.5232 13.7946 9.29638 13.9408 8.06151L13.9409 8.06113C14.0081 7.48985 14.0414 6.89558 14.0414 6.27863C14.0414 6.0454 14.0333 5.80514 14.0172 5.55796V5.50159C14.0172 4.53638 13.6647 3.53745 13.0168 2.51442L13.0002 2.48812L12.9804 2.46409C12.2298 1.55273 11.2739 0.965938 10.1273 0.71512L10.1273 0.715105L10.1235 0.714295C9.77938 0.641857 9.42093 0.606445 9.04915 0.606445C8.90946 0.606445 8.76993 0.614556 8.63064 0.630726H2.92993H2.88042L2.83187 0.640436C2.78829 0.649153 2.73264 0.655007 2.66282 0.655007H2.66235H2.66188H2.6614H2.66093H2.66045H2.65998H2.65951H2.65903H2.65856H2.65809H2.65762H2.65715H2.65667H2.6562H2.65573H2.65526H2.65479H2.65432H2.65385H2.65337H2.6529H2.65243H2.65196H2.65149H2.65102H2.65055H2.65009H2.64962H2.64915H2.64868H2.64821H2.64774H2.64727H2.64681H2.64634H2.64587H2.6454H2.64493H2.64447H2.644H2.64353H2.64307H2.6426H2.64213H2.64167H2.6412H2.64074H2.64027H2.63981H2.63934H2.63888H2.63841H2.63795H2.63748H2.63702H2.63655H2.63609H2.63563H2.63516H2.6347H2.63424H2.63377H2.63331H2.63285H2.63239H2.63192H2.63146H2.631H2.63054H2.63008H2.62962H2.62916H2.6287H2.62823H2.62777H2.62731H2.62685H2.62639H2.62593H2.62547H2.62502H2.62456H2.6241H2.62364H2.62318H2.62272H2.62226H2.6218H2.62135H2.62089H2.62043H2.61997H2.61952H2.61906H2.6186H2.61815H2.61769H2.61723H2.61678H2.61632H2.61587H2.61541H2.61496H2.6145H2.61405H2.61359H2.61314H2.61268H2.61223H2.61177H2.61132H2.61087H2.61041H2.60996H2.60951H2.60905H2.6086H2.60815H2.6077H2.60724H2.60679H2.60634H2.60589H2.60544H2.60499H2.60454H2.60408H2.60363H2.60318H2.60273H2.60228H2.60183H2.60138H2.60093H2.60048H2.60004H2.59959H2.59914H2.59869H2.59824H2.59779H2.59734H2.5969H2.59645H2.596H2.59555H2.59511H2.59466H2.59421H2.59377H2.59332H2.59287H2.59243H2.59198H2.59154H2.59109H2.59065H2.5902H2.58976H2.58931H2.58887H2.58842H2.58798H2.58753H2.58709H2.58665H2.5862H2.58576H2.58532H2.58487H2.58443H2.58399H2.58355H2.5831H2.58266H2.58222H2.58178H2.58134H2.5809H2.58046H2.58002H2.57957H2.57913H2.57869H2.57825H2.57781H2.57737H2.57693H2.5765H2.57606H2.57562H2.57518H2.57474H2.5743H2.57386H2.57342H2.57299H2.57255H2.57211H2.57167H2.57124H2.5708H2.57036H2.56993H2.56949H2.56905H2.56862H2.56818H2.56775H2.56731H2.56688H2.56644H2.56601H2.56557H2.56514H2.5647H2.56427H2.56383H2.5634H2.56297H2.56253H2.5621H2.56167H2.56123H2.5608H2.56037H2.55994H2.55951H2.55907H2.55864H2.55821H2.55778H2.55735H2.55692H2.55649H2.55605H2.55562H2.55519H2.55476H2.55433H2.5539H2.55347H2.55305H2.55262H2.55219H2.55176H2.55133H2.5509H2.55047H2.55005H2.54962H2.54919H2.54876H2.54833H2.54791H2.54748H2.54705H2.54663H2.5462H2.54577H2.54535H2.54492H2.5445H2.54407H2.54365H2.54322H2.5428H2.54237H2.54195H2.54152H2.5411H2.54068H2.54025H2.53983H2.5394H2.53898H2.53856H2.53814H2.53771H2.53729H2.53687H2.53645H2.53602H2.5356H2.53518H2.53476H2.53434H2.53392H2.5335H2.53308H2.53265H2.53223H2.53181H2.53139H2.53097H2.53056H2.53014H2.52972H2.5293H2.52888H2.52846H2.52804H2.52762H2.52721H2.52679H2.52637H2.52595H2.52554H2.52512H2.5247H2.52428H2.52387H2.52345H2.52304H2.52262H2.5222H2.52179H2.52137H2.52096H2.52054H2.52013H2.51971H2.5193H2.51888H2.51847H2.51806H2.51764H2.51723H2.51681H2.5164H2.51599H2.51558H2.51516H2.51475H2.51434H2.51393H2.51351H2.5131H2.51269H2.51228H2.51187H2.51146H2.51105H2.51064H2.51023H2.50982H2.50941H2.509H2.50859H2.50818H2.50777H2.50736H2.50695H2.50654H2.50613H2.50572H2.50531H2.50491H2.5045H2.50409H2.50368H2.50328H2.50287H2.50246H2.50206H2.50165H2.50124H2.50084H2.50043H2.50002H2.49962H2.49921H2.49881H2.4984H2.498H2.49759H2.49719H2.49678H2.49638H2.49598H2.49557H2.49517H2.49477H2.49436H2.49396H2.49356H2.49315H2.49275H2.49235H2.49195H2.49155H2.49114H2.49074H2.49034H2.48994H2.48954H2.48914H2.48874H2.48834H2.48794H2.48754H2.48714H2.48674H2.48634H2.48594H2.48554H2.48514H2.48474H2.48434H2.48394H2.48355H2.48315H2.48275H2.48235H2.48195H2.48156H2.48116H2.48076H2.48037H2.47997H2.47957H2.47918H2.47878H2.47839H2.47799H2.47759H2.4772H2.4768H2.47641H2.47601H2.47562H2.47523H2.47483H2.47444H2.47404H2.47365H2.47326H2.47286H2.47247H2.47208H2.47169H2.47129H2.4709H2.47051H2.47012H2.46972H2.46933H2.46894H2.46855H2.46816H2.46777H2.46738H2.46699H2.4666H2.46621H2.46582H2.46543H2.46504H2.46465H2.46426H2.46387H2.46348H2.46309H2.46271H2.46232H2.46193H2.46154H2.46115H2.46077H2.46038H2.45999H2.4596H2.45922H2.45883H2.45844H2.45806H2.45767H2.45729H2.4569H2.45652H2.45613H2.45575H2.45536H2.45498H2.45459H2.45421H2.45382H2.45344H2.45306H2.45267H2.45229H2.45191H2.45152H2.45114H2.45076H2.45037H2.44999H2.44961H2.44923H2.44885H2.44846H2.44808H2.4477H2.44732H2.44694H2.44656H2.44618H2.4458H2.44542H2.44504H2.44466H2.44428C2.43908 0.655007 2.43668 0.654862 2.43671 0.654846C2.43673 0.65483 2.43941 0.654955 2.44428 0.655538C2.44885 0.656085 2.45535 0.657034 2.46341 0.658645C2.4766 0.661282 2.50315 0.667478 2.53651 0.681774C2.56612 0.694463 2.61387 0.718972 2.66282 0.764115C2.66735 0.768289 2.67189 0.772639 2.67642 0.777173L2.66282 0.787338L2.44428 0.950728L1.88373 1.36981C2.64366 2.76559 3.03099 4.15307 3.0614 5.53686L3.06133 5.53686L3.06166 5.5453L3.23153 9.91332C3.23155 9.9138 3.23156 9.91428 3.23158 9.91475C3.32848 12.8384 3.37694 15.754 3.37695 18.6614C3.36078 21.5855 3.29615 24.5015 3.18307 27.4094H3.18306L3.18294 27.4132L3.13441 28.9659C3.13441 28.9662 3.1344 28.9664 3.13439 28.9666C3.10221 29.9158 3.05395 30.8568 2.98962 31.7896L2.98954 31.7907C2.89705 33.178 2.5191 34.5734 1.84743 35.9793L1.50556 36.6948H2.29858H9.82619H10.6192L10.2773 35.9793C9.60568 34.5734 9.22773 33.178 9.13524 31.7907L9.13516 31.7896C9.07083 30.8567 9.02257 29.9157 8.99038 28.9666C8.99038 28.9664 8.99037 28.9662 8.99036 28.9659L8.94186 27.4132L8.94171 27.4094C8.82864 24.502 8.76402 21.5864 8.74783 18.6628C8.76402 15.7544 8.82058 12.8379 8.91753 9.91332L8.91757 9.91332L8.91771 9.90656C8.93377 9.08748 8.96589 8.26838 9.01407 7.44928L9.0142 7.44929L9.01462 7.43776C9.03081 6.98428 9.04701 6.5227 9.0632 6.05304L9.0635 6.04442V6.03581C9.0635 5.9772 9.07306 5.92765 9.0899 5.88343C9.10487 5.85776 9.12273 5.84171 9.15134 5.8274L9.16852 5.81881L9.18499 5.80893C9.48979 5.62605 9.80154 5.46642 10.1203 5.32981L10.1338 5.32402L10.1469 5.31745C10.1614 5.31023 10.1732 5.30494 10.1824 5.30115C10.1862 5.29961 10.1894 5.29838 10.1921 5.2974H10.2277L10.2874 5.28247C10.3054 5.27798 10.3182 5.27521 10.3266 5.27359C10.3278 5.27368 10.3288 5.27377 10.3297 5.27386C10.3549 5.28343 10.3889 5.30436 10.43 5.36613C10.962 6.16401 11.2586 7.05742 11.3183 8.05679L11.3191 8.07114L11.3208 8.08541C11.4479 9.16613 11.5116 10.2717 11.5116 11.4023C11.5116 11.7343 11.5037 12.0663 11.4879 12.3984L11.4875 12.4067L11.4874 12.415C11.4713 13.5432 11.439 14.6714 11.3907 15.7997C11.3907 15.7999 11.3907 15.8001 11.3907 15.8003L11.3423 16.8636C11.2771 17.9409 11.2445 19.0181 11.2445 20.0954C11.2445 20.5198 11.2526 20.9519 11.2688 21.3917C11.2696 22.9395 11.4781 24.5085 11.892 26.0978L11.892 26.0978L11.8933 26.1025C12.1179 26.9321 12.4796 27.7311 12.9741 28.4989C13.4758 29.2941 14.1143 29.9918 14.8857 30.5917C15.6497 31.1859 16.4817 31.6698 17.3807 32.0429L17.3851 32.0448C18.2454 32.3922 19.1301 32.6898 20.039 32.9377L20.4968 33.0625L20.6454 32.6119L22.1267 28.1196L22.4108 27.2579L21.5306 27.478C21.5043 27.4845 21.4802 27.4873 21.4576 27.4873Z" stroke="url(#paint3_linear_553_93060)"/>
<path d="M39.823 3.81631C39.8657 3.85422 39.9087 3.89075 39.9521 3.92599H39.036L39.036 2.86887C39.1965 3.12822 39.3693 3.35451 39.554 3.55328C39.6416 3.64745 39.7313 3.73489 39.823 3.81631L40.155 3.44243L39.823 3.81631ZM38.036 2.86912L38.036 3.92599H37.1202C37.1635 3.89075 37.2066 3.85422 37.2493 3.81631L36.9561 3.48615L37.2493 3.81631C37.341 3.73489 37.4307 3.64745 37.5182 3.55328C37.7029 3.35457 37.8756 3.12836 38.036 2.86912ZM37.2491 5.03563C37.2064 4.99773 37.1634 4.96121 37.12 4.92599H38.036V5.98306C37.8756 5.72372 37.7028 5.49743 37.518 5.29866C37.4305 5.20449 37.3408 5.11705 37.2491 5.03563ZM39.036 5.98281V4.92599H39.9519C39.9085 4.96121 39.8654 4.99773 39.8228 5.03563C39.7311 5.11705 39.6414 5.20449 39.5539 5.29866C39.3692 5.49737 39.1964 5.72358 39.036 5.98281Z" stroke="url(#paint4_linear_553_93060)"/>
<defs>
<linearGradient id="paint0_linear_553_93060" x1="83.6212" y1="11.1592" x2="83.6212" y2="36.2188" gradientUnits="userSpaceOnUse">
<stop stop-color="white"/>
<stop offset="1" stop-color="#999999"/>
</linearGradient>
<linearGradient id="paint1_linear_553_93060" x1="57.0439" y1="11.0869" x2="57.0439" y2="36.0737" gradientUnits="userSpaceOnUse">
<stop stop-color="white"/>
<stop offset="1" stop-color="#999999"/>
</linearGradient>
<linearGradient id="paint2_linear_553_93060" x1="38.5891" y1="11.1108" x2="38.5891" y2="36.1462" gradientUnits="userSpaceOnUse">
<stop stop-color="white"/>
<stop offset="1" stop-color="#999999"/>
</linearGradient>
<linearGradient id="paint3_linear_553_93060" x1="17.3417" y1="1.10645" x2="17.3417" y2="36.1948" gradientUnits="userSpaceOnUse">
<stop stop-color="white"/>
<stop offset="1" stop-color="#999999"/>
</linearGradient>
<linearGradient id="paint4_linear_553_93060" x1="38.5361" y1="0" x2="38.5361" y2="8.85194" gradientUnits="userSpaceOnUse">
<stop stop-color="white"/>
<stop offset="1" stop-color="#999999"/>
</linearGradient>
</defs>
</svg>
