<svg width="45" height="36" viewBox="0 0 45 36" fill="none" xmlns="http://www.w3.org/2000/svg">
<path d="M4.40123 35.4938C3.19089 35.4938 2.15514 35.0598 1.29396 34.1916C0.432788 33.3235 0.00146708 32.2787 0 31.0571V4.43673C0 3.21663 0.431321 2.17252 1.29396 1.3044C2.1566 0.436278 3.19236 0.00147891 4.40123 0H39.6111C40.8214 0 41.8579 0.434799 42.7206 1.3044C43.5832 2.174 44.0138 3.21811 44.0123 4.43673V31.0571C44.0123 32.2772 43.5818 33.322 42.7206 34.1916C41.8594 35.0612 40.8229 35.4953 39.6111 35.4938H4.40123ZM22.0062 19.9653L39.6111 8.87346V4.43673L22.0062 15.5285L4.40123 4.43673V8.87346L22.0062 19.9653Z" fill="white"/>
</svg>
