<svg width="49" height="42" viewBox="0 0 49 42" fill="none" xmlns="http://www.w3.org/2000/svg">
<path fill-rule="evenodd" clip-rule="evenodd" d="M43.2715 0.281676C43.865 0.032267 44.5146 -0.0537526 45.1527 0.0325697C45.7908 0.118892 46.3941 0.374401 46.8997 0.772502C47.4054 1.1706 47.7949 1.69674 48.0278 2.29616C48.2607 2.89557 48.3284 3.54635 48.2238 4.18075L42.7767 37.1694C42.2484 40.3515 38.7515 42.1764 35.8286 40.5913C33.3836 39.2653 29.7522 37.2222 26.4859 35.0904C24.8527 34.0233 19.8499 30.6062 20.4648 28.1747C20.9932 26.0957 29.3992 18.2831 34.2026 13.6383C36.088 11.8134 35.2281 10.7607 33.0017 12.4393C27.473 16.607 18.5962 22.9448 15.6613 24.7288C13.0723 26.3019 11.7225 26.5705 10.1086 26.3019C7.16406 25.8127 4.4333 25.055 2.20451 24.1318C-0.807246 22.8848 -0.660742 18.7507 2.20211 17.547L43.2715 0.281676Z" fill="white"/>
</svg>
