<svg width="49" height="29" viewBox="0 0 49 29" fill="none" xmlns="http://www.w3.org/2000/svg">
<path fill-rule="evenodd" clip-rule="evenodd" d="M47.1644 1.92275C47.4983 0.815344 47.1644 0 45.5654 0H40.2858C38.9423 0 38.3228 0.703792 37.9869 1.4806C37.9869 1.4806 35.3019 7.96279 31.4986 12.1734C30.2677 13.3944 29.7085 13.7817 29.0368 13.7817C28.7009 13.7817 28.1961 13.3944 28.1961 12.2849V1.92275C28.1961 0.59224 27.826 0 26.7077 0H18.4052C17.5665 0 17.0616 0.616578 17.0616 1.20273C17.0616 2.46226 18.9643 2.75432 19.1594 6.29965V14.0028C19.1594 15.6923 18.8517 15.9986 18.1799 15.9986C16.3899 15.9986 12.0355 9.48598 9.45098 2.0343C8.95017 0.584127 8.44333 0 7.09377 0H1.81015C0.301691 0 0 0.703792 0 1.4806C0 2.86384 1.79003 9.73545 8.33673 18.8239C12.7012 25.0302 18.8456 28.3951 24.443 28.3951C27.7998 28.3951 28.2142 27.6487 28.2142 26.3608V21.6695C28.2142 20.1747 28.5319 19.8765 29.5959 19.8765C30.3803 19.8765 31.7218 20.266 34.8554 23.2576C38.4355 26.8049 39.0248 28.3951 41.0401 28.3951H46.3197C47.8281 28.3951 48.5844 27.6487 48.1499 26.1721C47.6712 24.7037 45.9617 22.572 43.6949 20.0429C42.464 18.6028 40.6177 17.0512 40.0565 16.2744C39.2742 15.2786 39.4974 14.8344 40.0565 13.9481C40.0565 13.9481 46.4926 4.97116 47.1624 1.92275" fill="white"/>
</svg>
