<svg width="57" height="57" viewBox="0 0 57 57" fill="none" xmlns="http://www.w3.org/2000/svg">
<path d="M35.3883 25.4132C34.2273 26.5743 33.575 28.149 33.575 29.791C33.575 31.0902 33.9838 32.3565 34.7434 33.4106C35.503 34.4646 36.575 35.253 37.8075 35.664L40.6932 36.624C40.6932 36.624 40.6932 36.624 40.6932 36.624L40.694 36.6243L40.4415 37.3834L35.3883 25.4132ZM35.3883 25.4132C36.5494 24.2522 38.1241 23.5999 39.766 23.5999H44.8M35.3883 25.4132L44.8 23.5999M44.8 23.5999V27.6999H39.7669H39.766V28.4999C39.4592 28.4996 39.1622 28.6086 38.9284 28.8073M44.8 23.5999L39.3585 31.0165C39.0672 30.9199 38.8198 30.7228 38.6607 30.4604C38.5016 30.198 38.4411 29.8875 38.4902 29.5846C38.5393 29.2816 38.6946 29.0061 38.9284 28.8073M38.9284 28.8073L38.4102 28.1978C38.0316 28.5197 37.7799 28.966 37.7005 29.4567C37.621 29.9473 37.7189 30.4502 37.9766 30.8752C38.2344 31.3002 38.635 31.6195 39.1068 31.7758L38.9284 28.8073ZM17.1 30.5499H16.3V31.3499V44.7999H12.2V12.1999H21.375C22.5799 12.1999 23.773 12.4372 24.8861 12.8983C25.9993 13.3594 27.0107 14.0352 27.8627 14.8872C28.7147 15.7392 29.3905 16.7506 29.8516 17.8638C30.3127 18.9769 30.55 20.17 30.55 21.3749C30.55 22.5798 30.3127 23.7729 29.8516 24.886C29.3905 25.9992 28.7147 27.0106 27.8627 27.8626C27.0107 28.7146 25.9993 29.3904 24.8861 29.8515C23.773 30.3126 22.5799 30.5499 21.375 30.5499H17.1ZM17.1 16.2999H16.3V17.0999V25.6499V26.4499H17.1H21.375C22.721 26.4499 24.0118 25.9152 24.9636 24.9635C25.9153 24.0117 26.45 22.7209 26.45 21.3749C26.45 20.0289 25.9153 18.7381 24.9636 17.7863C24.0118 16.8346 22.721 16.2999 21.375 16.2999H17.1ZM39.1068 31.7758L41.9924 32.7358C41.9926 32.7359 41.9927 32.7359 41.9929 32.736C41.9929 32.736 41.993 32.736 41.993 32.736C43.3872 33.2011 44.5705 34.1471 45.3312 35.4047C46.0919 36.6625 46.3804 38.15 46.1448 39.6009C45.9092 41.0519 45.1651 42.3717 44.0455 43.3243C42.9259 44.2768 41.5039 44.7999 40.0339 44.7999H33.575V40.6999H40.0331H40.0339V39.8999C40.3408 39.9002 40.6378 39.7913 40.8716 39.5925L39.1068 31.7758Z" stroke="white" stroke-width="1.6"/>
<path d="M4.9 51.3V52.1H5.7H51.3H52.1V51.3V5.7V4.9H51.3H5.7H4.9V5.7V51.3ZM0.8 56.2V0.8H56.2V56.2H0.8Z" stroke="white" stroke-width="1.6"/>
</svg>
