<svg width="40" height="57" viewBox="0 0 40 57" fill="none" xmlns="http://www.w3.org/2000/svg">
<path d="M34.5544 18.6334C36.5458 17.6205 38.1346 15.9766 39.0659 13.9655C39.9972 11.9545 40.2169 9.69299 39.6899 7.54393C39.1628 5.39486 37.9195 3.48288 36.1595 2.11483C34.3995 0.746776 32.2248 0.00198966 29.9845 0H9.99485C7.75456 0.00198966 5.57991 0.746776 3.81991 2.11483C2.0599 3.48288 0.816596 5.39486 0.289536 7.54393C-0.237524 9.69299 -0.0177772 11.9545 0.913509 13.9655C1.84479 15.9766 3.43362 17.6205 5.42498 18.6334C3.75694 19.4817 2.36454 20.7763 1.4071 22.3692C0.449666 23.962 -0.0341387 25.7886 0.01105 27.6401C0.0562386 29.4916 0.628595 31.2931 1.66263 32.8386C2.69666 34.384 4.1506 35.611 5.85809 36.379C4.12683 37.2951 2.67273 38.6481 1.64414 40.2998C0.615554 41.9516 0.0492755 43.8431 0.00307289 45.7814C-0.0431298 47.7196 0.432397 49.6353 1.38115 51.333C2.3299 53.0307 3.71791 54.4496 5.40361 55.445C7.08931 56.4405 9.01237 56.9768 10.9766 56.9993C12.9409 57.0217 14.876 56.5296 16.5846 55.573C18.2933 54.6164 19.7143 53.2297 20.7026 51.5541C21.691 49.8786 22.2114 47.9743 22.2108 46.0355V33.5922C23.1436 34.7392 24.3245 35.6658 25.6669 36.3042C27.0094 36.9426 28.4795 37.2766 29.9697 37.2818C31.4599 37.287 32.9323 36.9633 34.2794 36.3343C35.6264 35.7054 36.8139 34.7871 37.7549 33.6467C38.696 32.5062 39.3667 31.1726 39.7181 29.7433C40.0695 28.314 40.0927 26.8252 39.7858 25.386C39.479 23.9467 38.85 22.5934 37.9448 21.425C37.0397 20.2567 35.8813 19.3029 34.5544 18.6334ZM37.7583 9.86476C37.7583 11.8997 36.9393 13.8512 35.4814 15.2901C34.0236 16.729 32.0463 17.5373 29.9845 17.5373H22.2108V2.19217H29.9845C32.0463 2.19217 34.0236 3.00053 35.4814 4.43942C36.9393 5.87831 37.7583 7.82986 37.7583 9.86476ZM22.2108 19.7295H23.7128C23.1607 20.1702 22.6573 20.6671 22.2108 21.212V19.7295ZM2.22108 9.86476C2.22108 7.82986 3.0401 5.87831 4.49796 4.43942C5.95583 3.00053 7.93312 2.19217 9.99485 2.19217H19.9897V17.5373H9.99485C7.93312 17.5373 5.95583 16.729 4.49796 15.2901C3.0401 13.8512 2.22108 11.8997 2.22108 9.86476ZM19.9897 46.0355C19.9897 47.7698 19.4686 49.4651 18.4924 50.9071C17.5162 52.3491 16.1287 53.4731 14.5053 54.1367C12.8819 54.8004 11.0955 54.9741 9.37214 54.6357C7.64876 54.2974 6.06572 53.4622 4.82323 52.2359C3.58074 51.0096 2.73459 49.4472 2.39179 47.7462C2.04898 46.0453 2.22492 44.2822 2.89736 42.6799C3.56979 41.0776 4.70851 39.7082 6.16953 38.7447C7.63055 37.7811 9.34824 37.2669 11.1054 37.2669H19.9897V46.0355ZM19.9897 35.0747H9.99485C7.93312 35.0747 5.95583 34.2663 4.49796 32.8274C3.0401 31.3886 2.22108 29.437 2.22108 27.4021C2.22108 25.3672 3.0401 23.4157 4.49796 21.9768C5.95583 20.5379 7.93312 19.7295 9.99485 19.7295H19.9897V35.0747ZM29.9845 35.0747C28.447 35.0747 26.9441 34.6247 25.6657 33.7816C24.3873 32.9386 23.3909 31.7403 22.8025 30.3383C22.2141 28.9363 22.0602 27.3936 22.3601 25.9053C22.6601 24.4169 23.4005 23.0498 24.4877 21.9768C25.5748 20.9037 26.96 20.173 28.468 19.8769C29.9759 19.5809 31.539 19.7328 32.9594 20.3136C34.3799 20.8943 35.594 21.8777 36.4482 23.1394C37.3024 24.4012 37.7583 25.8846 37.7583 27.4021C37.7583 29.437 36.9393 31.3886 35.4814 32.8274C34.0236 34.2663 32.0463 35.0747 29.9845 35.0747Z" fill="white"/>
</svg>
