<svg width="64" height="60" viewBox="0 0 64 60" fill="none" xmlns="http://www.w3.org/2000/svg">
<path d="M44.2658 33.6518C43.6211 33.0091 42.7418 32.1856 41.8209 31.3446C40.6284 30.2558 39.4063 29.1736 38.6292 28.4927L38.7717 29.079C38.6579 29.1067 38.5387 29.1542 38.4159 29.2208L38.0539 28.902L38.5079 28.3866C38.4891 28.3701 38.4706 28.3539 38.4524 28.3381L44.2658 33.6518ZM44.2658 33.6518C44.1289 33.7587 43.9867 33.8759 43.8422 34.0008M1.72961 0.80005L1.72961 0.800098H1.73833C2.17644 0.800098 2.74665 1.06718 3.42878 1.55833L3.42873 1.55839L3.43767 1.56464C4.04911 1.99236 8.80425 5.01138 14.0214 8.25712C12.7111 9.46416 11.5091 10.7841 10.4292 12.2016C6.2721 7.84871 2.45436 3.93308 1.91595 3.43781L1.37434 4.02659L1.91726 3.43902C1.40819 2.96864 1.04146 2.52284 0.883055 2.12339C0.750928 1.7902 0.758618 1.49972 1.03265 1.15209L1.03816 1.14509L1.04352 1.13798C1.12356 1.03165 1.22738 0.945727 1.34655 0.887059C1.46571 0.828394 1.59692 0.798605 1.72961 0.80005ZM5.85418 30.5046C5.86065 24.8787 7.51757 19.3867 10.6108 14.7076C14.5057 18.7808 18.4529 22.9661 20.2001 24.9707C21.7656 26.7699 24.186 28.9814 26.8379 30.6959C29.3575 32.3249 32.2229 33.5948 34.8177 33.4802C35.7466 34.1764 37.1321 35.206 38.476 36.1714C39.6839 37.0392 40.898 37.8844 41.7132 38.3778C41.7306 39.0138 41.8452 39.6442 42.0541 40.2471C42.3996 41.3122 42.9938 42.2647 43.5939 43.1205C43.8282 43.4546 44.0561 43.765 44.2754 44.0635C44.6466 44.5689 44.9929 45.0404 45.3033 45.5363C45.7817 46.3007 46.0722 46.9759 46.1147 47.633C46.1543 48.246 45.9834 48.9364 45.3553 49.7626L45.3266 49.7888C45.3289 49.6472 45.324 49.5057 45.312 49.3644C45.2226 48.3105 44.7495 47.3575 44.2004 46.5004C43.8559 45.9625 43.437 45.4 43.0331 44.8575C42.8119 44.5603 42.5951 44.2692 42.3975 43.9914C41.8082 43.163 41.3184 42.3652 41.0495 41.5375L41.0496 41.5375L41.0462 41.5275C40.8671 41 40.778 40.4424 40.7866 39.8889L40.8111 38.3034L39.5213 39.2258C31.4219 45.0182 24.2347 44.4761 18.8001 41.9333C16.0611 40.6517 13.7513 38.8526 11.9944 37.0633C10.2289 35.2651 9.06054 33.5166 8.56969 32.3681L7.04233 32.7972C8.43392 42.4033 14.9035 51.0218 24.6988 54.3376L24.699 54.3377C30.1298 56.1746 38.0546 56.6642 44.0236 52.8462L44.1418 52.7706L44.2273 52.6592C44.6525 52.105 44.9462 51.5549 45.1225 51.0079L45.6764 51.6349C45.9342 51.4145 46.1854 51.1866 46.4299 50.9516C52.5016 47.4742 54.4449 41.2907 51.8991 36.6073L51.8968 36.6032C50.4385 33.9575 48.1582 32.7243 45.9781 33.119C45.2766 32.3656 44.0812 31.242 42.8998 30.1631C41.6034 28.9793 40.2742 27.8052 39.5081 27.1357C38.936 24.6512 37.1009 22.2033 35.0173 20.1455C32.8355 17.9907 30.2718 16.1568 28.2542 15.0277C26.0099 13.7703 21.35 10.9272 16.7189 8.05018C21.7721 4.02003 28.0479 1.8109 34.5296 1.80121C40.1991 1.80071 45.7415 3.48299 50.4563 6.63552C55.1712 9.78809 58.8469 14.2695 61.0185 19.5132C63.1883 24.7602 63.7555 30.5335 62.6482 36.1032C61.541 41.673 58.8091 46.7888 54.798 50.804C50.7868 54.8146 45.6783 57.5449 40.1181 58.6502C34.5577 59.7556 28.7948 59.1862 23.5574 57.0141C18.32 54.8419 13.843 51.1644 10.692 46.4459C7.54114 41.7277 5.85763 36.1803 5.85418 30.5046Z" stroke="white" stroke-width="1.6"/>
</svg>
